<svg width="450" height="450" viewBox="0 0 450 450" fill="none" xmlns="http://www.w3.org/2000/svg">
<rect y="150" width="150" height="150" fill="#F2B7B1"/>
<rect x="150" y="150" width="150" height="150" fill="#DE4D3E"/>
<rect width="150" height="150" fill="#DE4D3E"/>
<rect x="150" width="150" height="150" fill="#F2B7B1"/>
<circle cx="49.5" cy="251.25" r="21.75" fill="#E8E0D5"/>
<circle cx="100.5" cy="198" r="21.75" fill="#DE4D3E"/>
<circle cx="49.5" cy="198" r="21.75" fill="#DE4D3E"/>
<circle cx="100.5" cy="251.25" r="21.75" fill="#DE4D3E"/>
<rect x="15" y="102.504" width="123.75" height="45" transform="rotate(-45 15 102.504)" fill="#E8E0D5"/>
<circle cx="225.209" cy="75.2086" r="37.5" transform="rotate(-38.6598 225.209 75.2086)" fill="#E8E0D5"/>
<path d="M201.783 45.926C194.016 52.139 189.036 61.1826 187.938 71.0674C186.84 80.9522 189.713 90.8685 195.926 98.6347C202.139 106.401 211.183 111.381 221.067 112.479C230.952 113.578 240.868 110.704 248.635 104.491L225.209 75.2086L201.783 45.926Z" fill="#DE4D3E"/>
<g clip-path="url(#clip0_72_65)">
<path d="M300 173.1V181.485L276.42 158.4L250.695 183.6L224.985 158.4L199.275 183.6L173.565 158.4L150 181.5V173.1L173.565 150L199.275 175.2L224.985 150L250.695 175.2L276.42 150L300 173.1Z" fill="#E8E0D5"/>
<path d="M300 202.2V210.585L276.42 187.5L250.695 212.7L224.985 187.5L199.275 212.7L173.565 187.5L150 210.6V202.2L173.565 179.1L199.275 204.3L224.985 179.1L250.695 204.3L276.42 179.1L300 202.2Z" fill="#E8E0D5"/>
<path d="M300 260.4V268.785L276.42 245.7L250.695 270.9L224.985 245.7L199.275 270.9L173.565 245.7L150 268.8V260.4L173.565 237.3L199.275 262.5L224.985 237.3L250.695 262.5L276.42 237.3L300 260.4Z" fill="#E8E0D5"/>
<path d="M300 231.3V239.685L276.42 216.6L250.695 241.8L224.985 216.6L199.275 241.8L173.565 216.6L150 239.7V231.3L173.565 208.2L199.275 233.4L224.985 208.2L250.695 233.4L276.42 208.2L300 231.3Z" fill="#E8E0D5"/>
<path d="M300 289.5V297.885L276.42 274.8L250.695 300L224.985 274.8L199.275 300L173.565 274.8L150 297.9V289.5L173.565 266.4L199.275 291.6L224.985 266.4L250.695 291.6L276.42 266.4L300 289.5Z" fill="#E8E0D5"/>
</g>
<g clip-path="url(#clip1_72_65)">
<path d="M150 300H0V450H150V300Z" fill="#DE4D3E"/>
<path d="M114 414H36V336H114V414ZM54 396H96V354H54V396Z" fill="#F2B7B1"/>
</g>
<rect x="150" y="299.75" width="150" height="150" fill="#F2B7B1"/>
<path d="M275.25 329.375C275.25 342.205 269.916 354.509 260.422 363.581C250.928 372.653 238.052 377.75 224.625 377.75C211.198 377.75 198.322 372.653 188.828 363.581C179.334 354.509 174 342.205 174 329.375L224.625 329.375H275.25Z" fill="#E8E0D5"/>
<path d="M275.25 385.625C275.25 398.455 269.916 410.759 260.422 419.831C250.928 428.903 238.052 434 224.625 434C211.198 434 198.322 428.903 188.828 419.831C179.334 410.759 174 398.455 174 385.625L224.625 385.625H275.25Z" fill="#E8E0D5"/>
<rect x="300" y="300" width="150" height="150" fill="#DE4D3E"/>
<circle cx="375.5" cy="300.5" r="37.5" fill="#F2B7B1"/>
<circle cx="375.5" cy="390.5" r="37.5" fill="#E4E2D6"/>
<rect x="300" y="150" width="150" height="150" fill="#F2B7B1"/>
<rect x="318.75" y="171.75" width="112.5" height="24" fill="#DE4D3E"/>
<rect x="318.75" y="213" width="112.5" height="24" fill="#DE4D3E"/>
<rect x="318.75" y="254.25" width="112.5" height="24" fill="#DE4D3E"/>
<g clip-path="url(#clip2_72_65)">
<path d="M450 0H300V150H450V0Z" fill="#DE4D3E"/>
<path d="M416.873 43.3095C422.304 43.3095 426.707 38.9067 426.707 33.4755C426.707 28.0443 422.304 23.6415 416.873 23.6415C411.441 23.6415 407.039 28.0443 407.039 33.4755C407.039 38.9067 411.441 43.3095 416.873 43.3095Z" fill="#E4E2D6"/>
<path d="M416.873 84.834C422.304 84.834 426.707 80.4312 426.707 75C426.707 69.5688 422.304 65.166 416.873 65.166C411.441 65.166 407.039 69.5688 407.039 75C407.039 80.4312 411.441 84.834 416.873 84.834Z" fill="#F2B7B1"/>
<path d="M375 43.3095C380.431 43.3095 384.834 38.9067 384.834 33.4755C384.834 28.0443 380.431 23.6415 375 23.6415C369.569 23.6415 365.166 28.0443 365.166 33.4755C365.166 38.9067 369.569 43.3095 375 43.3095Z" fill="#F2B7B1"/>
<path d="M375 84.834C380.431 84.834 384.834 80.4312 384.834 75C384.834 69.5688 380.431 65.166 375 65.166C369.569 65.166 365.166 69.5688 365.166 75C365.166 80.4312 369.569 84.834 375 84.834Z" fill="#E4E2D6"/>
<path d="M333.127 43.3095C338.559 43.3095 342.961 38.9067 342.961 33.4755C342.961 28.0443 338.559 23.6415 333.127 23.6415C327.696 23.6415 323.293 28.0443 323.293 33.4755C323.293 38.9067 327.696 43.3095 333.127 43.3095Z" fill="#F2B7B1"/>
<path d="M416.873 126.358C422.304 126.358 426.707 121.956 426.707 116.524C426.707 111.093 422.304 106.69 416.873 106.69C411.441 106.69 407.039 111.093 407.039 116.524C407.039 121.956 411.441 126.358 416.873 126.358Z" fill="#F2B7B1"/>
<path d="M375 126.358C380.431 126.358 384.834 121.956 384.834 116.524C384.834 111.093 380.431 106.69 375 106.69C369.569 106.69 365.166 111.093 365.166 116.524C365.166 121.956 369.569 126.358 375 126.358Z" fill="#F2B7B1"/>
<path d="M333.127 126.358C338.559 126.358 342.961 121.956 342.961 116.524C342.961 111.093 338.559 106.69 333.127 106.69C327.696 106.69 323.293 111.093 323.293 116.524C323.293 121.956 327.696 126.358 333.127 126.358Z" fill="#E4E2D6"/>
<path d="M333.127 84.834C338.559 84.834 342.961 80.4312 342.961 75C342.961 69.5688 338.559 65.166 333.127 65.166C327.696 65.166 323.293 69.5688 323.293 75C323.293 80.4312 327.696 84.834 333.127 84.834Z" fill="#F2B7B1"/>
</g>
<defs>
<clipPath id="clip0_72_65">
<rect width="150" height="150" fill="white" transform="translate(150 150)"/>
</clipPath>
<clipPath id="clip1_72_65">
<rect width="150" height="150" fill="white" transform="translate(0 300)"/>
</clipPath>
<clipPath id="clip2_72_65">
<rect width="150" height="150" fill="white" transform="translate(300)"/>
</clipPath>
</defs>
</svg>
