<svg width="400" height="400" viewBox="0 0 400 400" fill="none" xmlns="http://www.w3.org/2000/svg">
<rect y="200" width="200" height="200" fill="#E8E0D5"/>
<rect x="200" y="200" width="200" height="200" fill="#679552"/>
<rect width="200" height="200" fill="#679552"/>
<rect x="200" width="200" height="200" fill="#E8E0D5"/>
<circle cx="66" cy="335" r="29" fill="#426035"/>
<circle cx="134" cy="264" r="29" fill="#679552"/>
<circle cx="66" cy="264" r="29" fill="#679552"/>
<circle cx="134" cy="335" r="29" fill="#679552"/>
<rect x="20" y="136.673" width="165" height="60" transform="rotate(-45 20 136.673)" fill="#426035"/>
<circle cx="300.278" cy="100.278" r="50" transform="rotate(-38.6598 300.278 100.278)" fill="#426035"/>
<path d="M269.043 61.2347C258.688 69.5187 252.048 81.5769 250.584 94.7566C249.12 107.936 252.951 121.158 261.235 131.513C269.519 141.868 281.577 148.508 294.757 149.972C307.936 151.437 321.158 147.606 331.513 139.322L300.278 100.278L269.043 61.2347Z" fill="#679552"/>
<g clip-path="url(#clip0_62_9)">
<path d="M400 230.8V241.98L368.56 211.2L334.26 244.8L299.98 211.2L265.7 244.8L231.42 211.2L200 242V230.8L231.42 200L265.7 233.6L299.98 200L334.26 233.6L368.56 200L400 230.8Z" fill="#E8E0D5"/>
<path d="M400 269.6V280.78L368.56 250L334.26 283.6L299.98 250L265.7 283.6L231.42 250L200 280.8V269.6L231.42 238.8L265.7 272.4L299.98 238.8L334.26 272.4L368.56 238.8L400 269.6Z" fill="#E8E0D5"/>
<path d="M400 347.2V358.38L368.56 327.6L334.26 361.2L299.98 327.6L265.7 361.2L231.42 327.6L200 358.4V347.2L231.42 316.4L265.7 350L299.98 316.4L334.26 350L368.56 316.4L400 347.2Z" fill="#E8E0D5"/>
<path d="M400 308.4V319.58L368.56 288.8L334.26 322.4L299.98 288.8L265.7 322.4L231.42 288.8L200 319.6V308.4L231.42 277.6L265.7 311.2L299.98 277.6L334.26 311.2L368.56 277.6L400 308.4Z" fill="#E8E0D5"/>
<path d="M400 386V397.18L368.56 366.4L334.26 400L299.98 366.4L265.7 400L231.42 366.4L200 397.2V386L231.42 355.2L265.7 388.8L299.98 355.2L334.26 388.8L368.56 355.2L400 386Z" fill="#E8E0D5"/>
</g>
<defs>
<clipPath id="clip0_62_9">
<rect width="200" height="200" fill="white" transform="translate(200 200)"/>
</clipPath>
</defs>
</svg>
