<svg width="785" height="155" viewBox="0 0 785 155" fill="none" xmlns="http://www.w3.org/2000/svg">
<rect y="24" width="131" height="131" fill="#679552"/>
<rect x="13.0571" y="113.656" width="107.722" height="39.1715" transform="rotate(-45 13.0571 113.656)" fill="#E8E0D5"/>
<rect x="131" y="24" width="130" height="131" fill="#426035"/>
<circle cx="196.039" cy="89.8963" r="32.6429" transform="rotate(-38.6598 196.039 89.8963)" fill="#E8E0D5"/>
<path d="M175.647 64.406C168.887 69.8143 164.552 77.6866 163.596 86.2911C162.64 94.8956 165.141 103.527 170.549 110.288C175.958 117.048 183.83 121.383 192.434 122.339C201.039 123.295 209.671 120.794 216.431 115.386L196.039 89.8959L175.647 64.406Z" fill="#679552"/>
<rect x="391" y="24" width="131" height="131" fill="#426035"/>
<circle cx="435" cy="113" r="19" fill="#E8E0D5"/>
<ellipse cx="479.5" cy="66.5" rx="19.5" ry="18.5" fill="#679552"/>
<ellipse cx="435" cy="66.5" rx="19" ry="18.5" fill="#679552"/>
<ellipse cx="479.5" cy="113" rx="19.5" ry="19" fill="#679552"/>
<rect x="261" y="24" width="130" height="131" fill="#679552"/>
<g clip-path="url(#clip0_67_31)">
<path d="M391 43.866V51.0771L370.564 31.224L348.269 52.896L325.987 31.224L303.705 52.896L281.423 31.224L261 51.09V43.866L281.423 24L303.705 45.672L325.987 24L348.269 45.672L370.564 24L391 43.866Z" fill="#E8E0D5"/>
<path d="M391 68.8919V76.103L370.564 56.2499L348.269 77.9219L325.987 56.2499L303.705 77.9219L281.423 56.2499L261 76.1159V68.8919L281.423 49.0259L303.705 70.6979L325.987 49.0259L348.269 70.6979L370.564 49.0259L391 68.8919Z" fill="#E8E0D5"/>
<path d="M391 118.944V126.155L370.564 106.302L348.269 127.974L325.987 106.302L303.705 127.974L281.423 106.302L261 126.168V118.944L281.423 99.0781L303.705 120.75L325.987 99.0781L348.269 120.75L370.564 99.0781L391 118.944Z" fill="#E8E0D5"/>
<path d="M391 93.918V101.129L370.564 81.276L348.269 102.948L325.987 81.276L303.705 102.948L281.423 81.276L261 101.142V93.918L281.423 74.052L303.705 95.724L325.987 74.052L348.269 95.724L370.564 74.052L391 93.918Z" fill="#E8E0D5"/>
<path d="M391 143.97V151.181L370.564 131.328L348.269 153L325.987 131.328L303.705 153L281.423 131.328L261 151.194V143.97L281.423 124.104L303.705 145.776L325.987 124.104L348.269 145.776L370.564 124.104L391 143.97Z" fill="#E8E0D5"/>
</g>
<g clip-path="url(#clip1_67_31)">
<path d="M654 24H522V155H654V24Z" fill="#679552"/>
<path d="M622.32 123.56H553.68V55.4399H622.32V123.56ZM569.52 107.84H606.48V71.1599H569.52V107.84Z" fill="#426035"/>
</g>
<rect x="654" y="24" width="131" height="131" fill="#426035"/>
<path d="M768 44.5C768 56.3021 763.101 67.6209 754.38 75.9663C745.66 84.3116 733.833 89 721.5 89C709.167 89 697.34 84.3116 688.62 75.9663C679.899 67.6209 675 56.3021 675 44.5L721.5 44.5H768Z" fill="#E8E0D5"/>
<path d="M768 95C768 106.67 763.101 117.861 754.38 126.113C745.66 134.364 733.833 139 721.5 139C709.167 139 697.34 134.364 688.62 126.113C679.899 117.861 675 106.67 675 95L721.5 95H768Z" fill="#E8E0D5"/>
<defs>
<clipPath id="clip0_67_31">
<rect width="130" height="129" fill="white" transform="translate(261 24)"/>
</clipPath>
<clipPath id="clip1_67_31">
<rect width="132" height="131" fill="white" transform="translate(522 24)"/>
</clipPath>
</defs>
</svg>
