<svg width="333" height="224" viewBox="0 0 333 224" fill="none" xmlns="http://www.w3.org/2000/svg">
<rect x="111.558" y="223.115" width="111.558" height="111.558" transform="rotate(-90 111.558 223.115)" fill="#426035"/>
<rect x="111.558" y="111.558" width="111.558" height="111.558" transform="rotate(-90 111.558 111.558)" fill="#679552"/>
<rect y="223.115" width="111.558" height="111.558" transform="rotate(-90 0 223.115)" fill="#679552"/>
<rect y="111.558" width="111.558" height="111.558" transform="rotate(-90 0 111.558)" fill="#426035"/>
<circle cx="186.859" cy="186.301" r="16.1759" transform="rotate(-90 186.859 186.301)" fill="#E8E0D5"/>
<circle cx="147.256" cy="148.372" r="16.1759" transform="rotate(-90 147.256 148.372)" fill="#679552"/>
<circle cx="147.256" cy="186.301" r="16.1759" transform="rotate(-90 147.256 186.301)" fill="#679552"/>
<circle cx="186.859" cy="148.372" r="16.1759" transform="rotate(-90 186.859 148.372)" fill="#679552"/>
<rect x="76.2344" y="211.959" width="92.0352" height="33.4673" transform="rotate(-135 76.2344 211.959)" fill="#E8E0D5"/>
<circle cx="55.9341" cy="55.6238" r="27.8894" transform="rotate(-128.66 55.9341 55.6238)" fill="#E8E0D5"/>
<path d="M34.1561 73.046C38.7768 78.8219 45.5027 82.5257 52.8542 83.3425C60.2057 84.1594 67.5806 82.0224 73.3565 77.4017C79.1324 72.7809 82.8362 66.055 83.653 58.7035C84.4698 51.352 82.3328 43.9771 77.7121 38.2012L55.9341 55.6236L34.1561 73.046Z" fill="#679552"/>
<rect x="221.442" y="111.558" width="111.558" height="111.558" transform="rotate(-90 221.442 111.558)" fill="#426035"/>
<path d="M243.475 18.407C253.017 18.407 262.168 22.3737 268.915 29.4346C275.662 36.4955 279.452 46.0721 279.452 56.0577C279.452 66.0433 275.662 75.62 268.915 82.6808C262.168 89.7417 253.017 93.7085 243.475 93.7085L243.475 56.0577V18.407Z" fill="#E8E0D5"/>
<path d="M285.309 18.407C294.851 18.407 304.002 22.3737 310.749 29.4346C317.496 36.4955 321.286 46.0721 321.286 56.0577C321.286 66.0433 317.496 75.62 310.749 82.6808C304.002 89.7417 294.851 93.7085 285.309 93.7085L285.309 56.0577V18.407Z" fill="#E8E0D5"/>
<g clip-path="url(#clip0_57_514)">
<path d="M221.442 111.558L221.442 223.115L333 223.115V111.558L221.442 111.558Z" fill="#679552"/>
<path d="M306.226 138.332V196.342H248.216V138.332H306.226ZM292.839 182.955V151.718H261.603V182.955H292.839Z" fill="#426035"/>
</g>
<g clip-path="url(#clip1_57_514)">
<path d="M128.48 -0.000164509H134.622L117.711 17.5367L136.172 36.6689L117.711 55.7899L136.172 74.9109L117.711 94.0319L134.633 111.558H128.48L111.558 94.0319L130.018 74.9109L111.558 55.7899L130.018 36.6689L111.558 17.5367L128.48 -0.000164509Z" fill="#E8E0D5"/>
<path d="M149.798 -0.000164509H155.94L139.029 17.5367L157.489 36.6689L139.029 55.7899L157.489 74.9109L139.029 94.0319L155.951 111.558H149.798L132.875 94.0319L151.336 74.9109L132.875 55.7899L151.336 36.6689L132.875 17.5367L149.798 -0.000164509Z" fill="#E8E0D5"/>
<path d="M192.433 -0.000164509H198.575L181.664 17.5367L200.125 36.6689L181.664 55.7899L200.125 74.9109L181.664 94.0319L198.586 111.558H192.433L175.51 94.0319L193.971 74.9109L175.51 55.7899L193.971 36.6689L175.51 17.5367L192.433 -0.000164509Z" fill="#E8E0D5"/>
<path d="M171.115 -0.000164509H177.258L160.346 17.5367L178.807 36.6689L160.346 55.7899L178.807 74.9109L160.346 94.0319L177.269 111.558H171.115L154.193 94.0319L172.653 74.9109L154.193 55.7899L172.653 36.6689L154.193 17.5367L171.115 -0.000164509Z" fill="#E8E0D5"/>
<path d="M213.75 -0.000164509H219.893L202.982 17.5367L221.442 36.6689L202.982 55.7899L221.442 74.9109L202.982 94.0319L219.904 111.558H213.75L196.828 94.0319L215.289 74.9109L196.828 55.7899L215.289 36.6689L196.828 17.5367L213.75 -0.000164509Z" fill="#E8E0D5"/>
</g>
<defs>
<clipPath id="clip0_57_514">
<rect width="111.558" height="111.558" fill="white" transform="matrix(0 -1 1 0 221.442 223.115)"/>
</clipPath>
<clipPath id="clip1_57_514">
<rect width="111.558" height="109.884" fill="white" transform="matrix(0 -1 1 0 111.558 111.558)"/>
</clipPath>
</defs>
</svg>
