<svg width="333" height="224" viewBox="0 0 333 224" fill="none" xmlns="http://www.w3.org/2000/svg">
<rect x="111.558" y="223.115" width="111.558" height="111.558" transform="rotate(-90 111.558 223.115)" fill="#F2B7B1"/>
<rect x="111.558" y="111.557" width="111.558" height="111.558" transform="rotate(-90 111.558 111.557)" fill="#DE4D3E"/>
<rect y="223.115" width="111.558" height="111.558" transform="rotate(-90 0 223.115)" fill="#DE4D3E"/>
<rect y="111.557" width="111.558" height="111.558" transform="rotate(-90 0 111.557)" fill="#F2B7B1"/>
<circle cx="186.859" cy="186.301" r="16.1759" transform="rotate(-90 186.859 186.301)" fill="#E8E0D5"/>
<circle cx="147.256" cy="148.372" r="16.1759" transform="rotate(-90 147.256 148.372)" fill="#DE4D3E"/>
<circle cx="147.256" cy="186.301" r="16.1759" transform="rotate(-90 147.256 186.301)" fill="#DE4D3E"/>
<circle cx="186.859" cy="148.372" r="16.1759" transform="rotate(-90 186.859 148.372)" fill="#DE4D3E"/>
<rect x="76.2344" y="211.959" width="92.0352" height="33.4673" transform="rotate(-135 76.2344 211.959)" fill="#E8E0D5"/>
<circle cx="55.9341" cy="55.6236" r="27.8894" transform="rotate(-128.66 55.9341 55.6236)" fill="#E8E0D5"/>
<path d="M34.1561 73.0458C38.7768 78.8217 45.5027 82.5254 52.8542 83.3423C60.2057 84.1591 67.5806 82.0221 73.3565 77.4014C79.1324 72.7807 82.8362 66.0548 83.653 58.7033C84.4698 51.3518 82.3328 43.9769 77.7121 38.201L55.9341 55.6234L34.1561 73.0458Z" fill="#DE4D3E"/>
<rect x="221.442" y="111.557" width="111.558" height="111.558" transform="rotate(-90 221.442 111.557)" fill="#F2B7B1"/>
<path d="M243.475 18.4067C253.017 18.4067 262.168 22.3735 268.915 29.4344C275.662 36.4953 279.452 46.0719 279.452 56.0575C279.452 66.0431 275.662 75.6197 268.915 82.6806C262.168 89.7415 253.017 93.7083 243.475 93.7083L243.475 56.0575V18.4067Z" fill="#E8E0D5"/>
<path d="M285.309 18.4067C294.851 18.4067 304.002 22.3735 310.749 29.4344C317.496 36.4953 321.286 46.0719 321.286 56.0575C321.286 66.0431 317.496 75.6197 310.749 82.6806C304.002 89.7415 294.851 93.7083 285.309 93.7083L285.309 56.0575V18.4067Z" fill="#E8E0D5"/>
<g clip-path="url(#clip0_55_484)">
<path d="M221.442 111.557L221.442 223.115L333 223.115V111.557L221.442 111.557Z" fill="#DE4D3E"/>
<path d="M306.226 138.331V196.341H248.216V138.331H306.226ZM292.839 182.954V151.718H261.603V182.954H292.839Z" fill="#F2B7B1"/>
</g>
<g clip-path="url(#clip1_55_484)">
<path d="M128.48 -0.000408649H134.622L117.711 17.5365L136.172 36.6686L117.711 55.7896L136.172 74.9106L117.711 94.0316L134.633 111.557H128.48L111.558 94.0316L130.018 74.9106L111.558 55.7896L130.018 36.6686L111.558 17.5365L128.48 -0.000408649Z" fill="#E8E0D5"/>
<path d="M149.798 -0.000408649H155.94L139.029 17.5365L157.489 36.6686L139.029 55.7896L157.489 74.9106L139.029 94.0316L155.951 111.557H149.798L132.875 94.0316L151.336 74.9106L132.875 55.7896L151.336 36.6686L132.875 17.5365L149.798 -0.000408649Z" fill="#E8E0D5"/>
<path d="M192.433 -0.000408649H198.575L181.664 17.5365L200.125 36.6686L181.664 55.7896L200.125 74.9106L181.664 94.0316L198.586 111.557H192.433L175.51 94.0316L193.971 74.9106L175.51 55.7896L193.971 36.6686L175.51 17.5365L192.433 -0.000408649Z" fill="#E8E0D5"/>
<path d="M171.115 -0.000408649H177.258L160.346 17.5365L178.807 36.6686L160.346 55.7896L178.807 74.9106L160.346 94.0316L177.269 111.557H171.115L154.193 94.0316L172.653 74.9106L154.193 55.7896L172.653 36.6686L154.193 17.5365L171.115 -0.000408649Z" fill="#E8E0D5"/>
<path d="M213.75 -0.000408649H219.893L202.982 17.5365L221.442 36.6686L202.982 55.7896L221.442 74.9106L202.982 94.0316L219.904 111.557H213.75L196.828 94.0316L215.289 74.9106L196.828 55.7896L215.289 36.6686L196.828 17.5365L213.75 -0.000408649Z" fill="#E8E0D5"/>
</g>
<defs>
<clipPath id="clip0_55_484">
<rect width="111.558" height="111.558" fill="white" transform="matrix(0 -1 1 0 221.442 223.115)"/>
</clipPath>
<clipPath id="clip1_55_484">
<rect width="111.558" height="109.884" fill="white" transform="matrix(0 -1 1 0 111.558 111.557)"/>
</clipPath>
</defs>
</svg>
