<svg width="50" height="50" viewBox="0 0 50 50" fill="none" xmlns="http://www.w3.org/2000/svg">
<rect width="50" height="50" fill="#343434"/>
<path d="M15.0156 35H11.6523V18.1953H15.0156V26.5977L21.2734 18.1953H25.0938L19.7852 25.2852L25.0938 35H21.2734L17.582 28.2031L15.0156 31.6367V35ZM39.5078 33.2773C38.7266 33.9492 37.8516 34.4648 36.8828 34.8242C35.9141 35.1836 34.9102 35.3633 33.8711 35.3633C33.0742 35.3633 32.3047 35.2578 31.5625 35.0469C30.8281 34.8438 30.1367 34.5547 29.4883 34.1797C28.8477 33.7969 28.2617 33.3398 27.7305 32.8086C27.1992 32.2773 26.7422 31.6914 26.3594 31.0508C25.9844 30.4023 25.6914 29.7109 25.4805 28.9766C25.2773 28.2344 25.1758 27.4648 25.1758 26.668C25.1758 25.8711 25.2773 25.1016 25.4805 24.3594C25.6914 23.6172 25.9844 22.9258 26.3594 22.2852C26.7422 21.6367 27.1992 21.0469 27.7305 20.5156C28.2617 19.9844 28.8477 19.5312 29.4883 19.1562C30.1367 18.7734 30.8281 18.4805 31.5625 18.2773C32.3047 18.0664 33.0742 17.9609 33.8711 17.9609C34.9102 17.9609 35.9141 18.1406 36.8828 18.5C37.8516 18.8516 38.7266 19.3672 39.5078 20.0469L37.7266 22.9766C37.2344 22.4453 36.6523 22.0391 35.9805 21.7578C35.3086 21.4688 34.6055 21.3242 33.8711 21.3242C33.1289 21.3242 32.4336 21.4648 31.7852 21.7461C31.1367 22.0273 30.5703 22.4102 30.0859 22.8945C29.6016 23.3711 29.2188 23.9375 28.9375 24.5938C28.6562 25.2422 28.5156 25.9336 28.5156 26.668C28.5156 27.4023 28.6562 28.0938 28.9375 28.7422C29.2188 29.3828 29.6016 29.9453 30.0859 30.4297C30.5703 30.9141 31.1367 31.2969 31.7852 31.5781C32.4336 31.8594 33.1289 32 33.8711 32C34.6055 32 35.3086 31.8594 35.9805 31.5781C36.6523 31.2891 37.2344 30.8789 37.7266 30.3477L39.5078 33.2773Z" fill="white"/>
</svg>
